Coordinates
version=1
nRows=14
nColumns=36
inDegrees=yes

Units are S.I. units (second, meters, Newtons, ...)
If the header above contains a line with 'inDegrees', this indicates whether rotational values are in degrees (yes) or radians (no).

endheader
time	pelvis_tilt	pelvis_list	pelvis_rotation	pelvis_tx	pelvis_ty	pelvis_tz	hip_flexion_r	hip_adduction_r	hip_rotation_r	knee_angle_r	knee_angle_r_beta	ankle_angle_r	subtalar_angle_r	mtp_angle_r	hip_flexion_l	hip_adduction_l	hip_rotation_l	knee_angle_l	knee_angle_l_beta	ankle_angle_l	subtalar_angle_l	mtp_angle_l	lumbar_extension	lumbar_bending	lumbar_rotation	arm_flex_r	arm_add_r	arm_rot_r	elbow_flex_r	pro_sup_r	arm_flex_l	arm_add_l	arm_rot_l	elbow_flex_l	pro_sup_l
      7.36666670	     -7.63371683	      3.45726586	    -39.51791745	      0.97609530	      0.92155760	      0.30825348	      9.14573086	      3.58793713	    -31.33216094	      2.62129280	      0.04575019	      6.91478607	     15.83901888	     -7.49999987	     10.21032914	     -2.65988014	     -9.75325902	      5.06938760	      0.08847750	     10.91975314	     11.47616883	     -7.49999987	      2.04179629	     -4.24436015	      9.56923589	     71.00862746	     -8.05321103	    107.21950096	      4.00821452	     33.82352361	     10.93208961	     -8.55665648	     67.25533645	     11.24508584	     49.24260696
      7.38333330	     -7.63395015	      3.48890610	    -39.54038612	      0.97639694	      0.92463106	      0.30824410	      9.31174749	      3.57566203	    -32.00829263	      2.69894207	      0.04710543	      6.77681941	     16.17445561	     -7.49999987	     10.16134766	     -2.63625195	    -10.10073560	      4.99528652	      0.08718420	     11.02398011	     11.96513171	     -7.49999987	      2.11628012	     -4.22980796	      9.15756097	     69.95188814	     -8.16472724	     96.19512674	      4.71462847	     45.25591607	     10.32466559	     -8.73375556	     60.76652004	     11.99065372	     55.47498069
      7.40000000	     -7.61119685	      3.37525508	    -39.38763722	      0.97945422	      0.92478834	      0.30789822	      9.20991035	      3.53587152	    -32.23064508	      2.72352474	      0.04753447	      6.76838771	     16.14873003	     -7.49999987	      9.73419184	     -2.53631158	     -9.80626116	      4.67410579	      0.08157854	     11.00615811	     11.61497289	     -7.49999987	      2.24039259	     -4.01721095	      8.66618806	     68.95093726	     -7.80894569	    102.81368320	      3.76798665	     34.70498774	     10.59216794	     -8.66213768	     68.37978599	     11.00626221	     48.35146766
      7.41666670	     -7.47793215	      3.23373372	    -39.44381853	      0.97884361	      0.92594124	      0.30727714	      8.99794681	      3.46186962	    -31.89146793	      2.72662934	      0.04758866	      6.78912269	     16.01084415	     -7.49999987	      9.29389081	     -2.45643958	    -10.04213539	      4.68191689	      0.08171487	     11.19926037	     11.73568711	     -7.49999987	      2.22202243	     -3.84776693	      8.15248941	     67.85088573	     -7.48210314	     99.46604952	      3.92811587	     36.86849386	     10.40966214	     -8.62635501	     68.81311149	     10.71672971	     49.28315570
      7.43333330	     -7.38232543	      3.18475933	    -39.50104926	      0.97946616	      0.92336979	      0.30736422	      8.84537521	      3.31726466	    -31.67633018	      2.82945124	      0.04938324	      6.96505158	     16.07850349	     -7.49999987	      9.15355887	     -2.39235061	    -10.27362775	      4.76262496	      0.08312349	     11.50203202	     11.95427978	     -7.49999987	      2.38765665	     -3.75770349	      7.17822791	     66.58917732	     -7.00795575	     90.45704096	      4.69454223	     45.02998804	      9.50548343	     -8.82140094	     63.68086740	     11.19132998	     53.99572520
      7.45000000	     -7.13440779	      3.11601161	    -39.53652557	      0.97967700	      0.92715130	      0.30621169	      8.57694569	      3.16248487	    -31.46738887	      2.86581144	      0.05001785	      7.09285403	     16.02399327	     -7.49999987	      8.93688451	     -2.24249470	    -10.08722821	      4.63722335	      0.08093482	     11.32197233	     11.53615283	     -7.49999987	      2.33781004	     -3.68070533	      6.56517075	     65.28473202	     -6.74690585	     94.78191257	      4.39036143	     37.22343157	      9.72393548	     -8.76085449	     70.88805458	     10.25643590	     46.14411396
      7.46666670	     -6.91639164	      3.09417585	    -39.64152999	      0.97923534	      0.92644911	      0.30752673	      8.20488394	      3.03820473	    -30.88898999	      2.77446524	      0.04842355	      7.24434864	     16.29833438	     -7.49999987	      8.72962677	     -2.09107309	    -10.22584732	      4.49112407	      0.07838490	     11.35259516	     11.62273414	     -7.49999987	      2.37528275	     -3.78682079	      5.94254574	     63.78117841	     -6.55399267	     91.46608904	      4.79759784	     38.89072475	      9.50531808	     -8.97297408	     71.65785608	     10.06708413	     45.42015664
      7.48333330	     -6.68937281	      2.99272587	    -40.01592826	      0.97669698	      0.92681369	      0.30592942	      8.20721754	      3.09210031	    -30.73571317	      2.82628847	      0.04932804	      7.16972294	     16.05022029	     -7.49999987	      8.52209457	     -2.09164664	    -10.60947092	      4.41925708	      0.07713059	     11.28231200	     11.93653265	     -7.49999987	      2.27236467	     -3.68970139	      5.19990675	     62.27673704	     -6.55534517	     84.87222162	      6.28304143	     43.61710210	      9.00576308	     -9.19759600	     68.08789602	     10.36137800	     49.26051272
      7.50000000	     -6.41304846	      2.84576046	    -40.36020374	      0.97623094	      0.92895112	      0.30482980	      8.03589466	      3.09590229	    -30.82990814	      2.72953005	      0.04763929	      6.79747362	     16.41333878	     -7.49999987	      7.95515828	     -1.99939677	    -10.64563544	      4.18622100	      0.07306334	     11.06460160	     11.71820169	     -7.49999987	      2.05594814	     -3.61144565	      5.05500955	     61.04921648	     -6.48784669	     83.21287806	      6.89336171	     43.62744203	      9.36963032	     -9.20660944	     72.57184856	      9.88840601	     45.71453553
      7.51666670	     -6.23856508	      2.74107908	    -40.81561816	      0.97444446	      0.92889530	      0.30419907	      7.91708152	      3.07492048	    -30.69448915	      2.68063342	      0.04678588	      6.68976943	     16.70341398	     -7.49999987	      7.82542551	     -2.06178360	    -10.74990765	      4.18273609	      0.07300252	     11.02312333	     11.56898777	     -7.49999987	      1.91463997	     -3.50047160	      4.83019219	     59.61291305	     -6.72111306	     77.37317776	      8.64165996	     48.09056290	      9.38877534	     -9.22424677	     73.59951237	      9.74911969	     45.51550087
      7.53333330	     -5.91631038	      2.56587635	    -41.25362909	      0.97535459	      0.93237493	      0.30710434	      7.55428964	      3.08113259	    -30.62785070	      2.61560279	      0.04565088	      6.50402436	     17.07300234	     -7.49999987	      7.56833309	     -2.10589694	    -11.10718139	      4.24565064	      0.07410058	     10.69063381	     11.49115536	     -7.49999987	      1.62676405	     -3.52932512	      4.63529872	     57.46230845	     -7.16254813	     70.22534797	     11.31781688	     52.46381676	      8.96759857	     -9.39121003	     69.74906471	     10.07788889	     50.28930054
      7.55000000	     -5.75708350	      2.48603382	    -41.52982949	      0.97266223	      0.93037925	      0.30742480	      7.34285871	      3.11209562	    -30.35074745	      2.61014836	      0.04555568	      6.44010586	     17.21712821	     -7.49999987	      7.32138877	     -2.09350170	    -11.26919783	      4.21286985	      0.07352845	     10.63193158	     11.22468158	     -7.49999987	      1.63146629	     -3.54955104	      4.36997465	     54.76087619	     -7.78927468	     62.32556416	     14.11414381	     58.52002667	      9.13202715	     -9.66399037	     74.61849699	      9.75631093	     45.78882436
      7.56666670	     -5.56473124	      2.31604059	    -41.64242076	      0.97268148	      0.93026571	      0.30736001	      7.05664945	      3.17134154	    -30.13392285	      2.67252314	      0.04664433	      6.50507316	     17.14285618	     -7.49999987	      7.13954758	     -2.16844031	    -11.33789017	      4.38502619	      0.07653314	     10.42511742	     11.19494860	     -7.49999987	      1.43634517	     -3.54516276	      3.82077394	     51.52893630	     -8.65916369	     55.13859049	     16.80953219	     63.76148940	      8.72828880	     -9.93412337	     71.04239083	      9.96417528	     52.64555980
      7.58333330	     -5.33222201	      2.13539065	    -41.93263460	      0.97570504	      0.92972477	      0.30851151	      6.71092031	      3.22066951	    -29.81897148	      2.73111044	      0.04766687	      6.73943792	     16.84298059	     -7.49999987	      6.93736260	     -2.26162375	    -11.61415349	      4.64756787	      0.08111536	     10.46540167	     10.97966312	     -7.49999987	      1.47944535	     -3.50260133	      3.27505338	     47.57946671	     -9.59353279	     46.06994928	     20.36942434	     69.78191850	      8.37278176	    -10.03921471	     75.66937695	      9.72057179	     45.59832815
